<svg viewBox="0 0 800 800" fill="none" xmlns="http://www.w3.org/2000/svg">
<rect width="800" height="800" rx="237" fill="#E8E0DA"/>
<path d="M454.65 126.748V259.809C454.65 304.427 490.821 340.597 535.438 340.597H668.5V449.898H535.438C490.821 449.898 454.65 486.068 454.65 530.686V673.252H345.35V530.686C345.35 486.068 309.179 449.898 264.562 449.898H131.5V340.597H345.35V126.748H454.65ZM247.518 204.5C254.493 204.5 260.888 206.192 266.701 209.58C272.514 212.967 277.106 217.581 280.478 223.42C283.849 229.144 285.535 235.509 285.535 242.517C285.535 249.525 283.849 255.949 280.478 261.789C277.106 267.511 272.514 272.067 266.701 275.454C260.888 278.841 254.493 280.535 247.518 280.535C240.658 280.535 234.322 278.841 228.509 275.454C222.696 272.067 218.045 267.512 214.558 261.789C211.186 255.949 209.5 249.525 209.5 242.517C209.5 235.509 211.186 229.144 214.558 223.42C218.045 217.581 222.696 212.967 228.509 209.58C234.322 206.192 240.658 204.5 247.518 204.5ZM247.518 214.31C242.053 214.31 237.228 215.536 233.043 217.989C228.858 220.325 225.603 223.654 223.277 227.975C220.952 232.18 219.789 237.028 219.789 242.517C219.789 248.006 220.952 252.912 223.277 257.233C225.603 261.438 228.858 264.708 233.043 267.044C237.228 269.38 242.053 270.548 247.518 270.548C252.982 270.548 257.807 269.38 261.992 267.044C266.178 264.708 269.434 261.438 271.759 257.233C274.2 252.912 275.421 248.006 275.421 242.517C275.421 237.028 274.2 232.18 271.759 227.975C269.434 223.654 266.178 220.325 261.992 217.989C257.807 215.536 252.982 214.31 247.518 214.31ZM249.436 223.771C253.621 223.771 257.168 224.939 260.074 227.275C262.981 229.611 264.434 232.706 264.434 236.56C264.434 240.298 262.922 243.392 259.899 245.845C259.042 246.534 258.093 247.12 257.054 247.606L265.132 260.562H255.191L248.562 249.341C248.39 249.344 248.216 249.349 248.041 249.349H242.809V260.562H233.566V223.771H249.436ZM242.809 241.641H249.436C251.063 241.641 252.401 241.232 253.447 240.415C254.494 239.48 255.017 238.195 255.017 236.56C255.017 234.925 254.493 233.699 253.447 232.881C252.401 231.947 251.063 231.479 249.436 231.479H242.809V241.641Z" fill="#E28C66"/>
</svg>
