<svg viewBox="0 0 24 24" fill="none" xmlns="http://www.w3.org/2000/svg">
<path d="M2.28697 11.4425C4.23072 10.3538 6.40048 9.4452 8.42779 8.53196C11.9156 7.03613 15.4172 5.56623 18.9541 4.19777C19.6423 3.96462 20.8788 3.73663 21 4.77353C20.9336 6.24132 20.6605 7.70051 20.4732 9.15971C19.9977 12.3686 19.4482 15.5665 18.9123 18.7649C18.7276 19.8302 17.4151 20.3817 16.5753 19.6999C14.557 18.3138 12.5231 16.941 10.5306 15.5227C9.8779 14.8483 10.4832 13.8799 11.0661 13.3984C12.7284 11.7326 14.4913 10.3174 16.0668 8.56556C16.4918 7.52212 15.2361 8.40149 14.8219 8.67097C12.5462 10.2656 10.3261 11.9575 7.92677 13.3589C6.70119 14.0449 5.27274 13.4587 4.04771 13.0759C2.94934 12.6135 1.33978 12.1476 2.28686 11.4426L2.28697 11.4425Z" fill="currentColor"/>
</svg>
