<svg width="24" height="24" viewBox="0 0 24 24" fill="none" xmlns="http://www.w3.org/2000/svg">
<path d="M19.5 15C20.05 15 20.5 15.45 20.5 16V18.5C20.5 20.43 18.93 22 17 22H7C5.07 22 3.5 20.43 3.5 18.5V17.8496C3.50021 16.2799 4.77992 15.0002 6.34961 15H19.5ZM15.5 2C19.5 2 20.5 3 20.5 7V12.5C20.5 13.05 20.05 13.5 19.5 13.5H6.34961C5.25976 13.5001 4.25991 13.9102 3.5 14.5801V7C3.5 3 4.5 2 8.5 2H15.5ZM8 9.25C7.59 9.25 7.25 9.59 7.25 10C7.25 10.41 7.59 10.75 8 10.75H13C13.41 10.75 13.75 10.41 13.75 10C13.75 9.59 13.41 9.25 13 9.25H8ZM8 5.75C7.59 5.75 7.25 6.09 7.25 6.5C7.25 6.91 7.59 7.25 8 7.25H16C16.41 7.25 16.75 6.91 16.75 6.5C16.75 6.09 16.41 5.75 16 5.75H8Z" fill="currentColor"/>
</svg>
