<svg width="24" height="24" viewBox="0 0 24 24" fill="none" xmlns="http://www.w3.org/2000/svg">
<path d="M12 11.5312C14.7599 11.5314 17 13.7713 17 16.5312C16.9999 17.271 16.8399 17.971 16.54 18.5908C16.4601 18.7708 16.3695 18.9406 16.2695 19.1006C15.4096 20.5505 13.8199 21.5311 12 21.5312C10.18 21.5312 8.58949 20.5506 7.72949 19.1006C7.62958 18.9407 7.5399 18.7707 7.45996 18.5908C7.16001 17.9709 7.00006 17.2711 7 16.5312C7 13.7713 9.24 11.5312 12 11.5312ZM5.52148 11.001C2.3115 2.07103 15.8512 -1.49892 17.4014 7.88086C21.7311 8.43111 23.4811 14.2014 20.2012 17.0713C19.8413 17.3912 19.4511 17.6609 19.0312 17.8809C18.6714 18.0608 18.3114 17.7114 18.3711 17.3115C18.4111 17.0215 18.4307 16.7211 18.4307 16.4111C18.4307 12.8311 15.5107 9.91113 11.9307 9.91113C8.35082 9.91132 5.43066 12.8312 5.43066 16.4111C5.43067 16.8711 5.48129 17.3112 5.57129 17.7412C5.64114 18.091 5.37116 18.441 5.02148 18.3516C1.07157 17.3916 1.05099 11.3112 5.4707 11.001H5.52148ZM14.1094 15.041C13.8294 14.7411 13.3598 14.721 13.0498 15.001L11.4502 16.4805L10.9697 16.001C10.6798 15.711 10.2002 15.7111 9.91016 16.001C9.62016 16.291 9.62016 16.7705 9.91016 17.0605L10.8994 18.0508C11.0494 18.2008 11.2397 18.2705 11.4297 18.2705C11.6095 18.2705 11.7995 18.2011 11.9395 18.0713L14.0693 16.1006C14.3693 15.8106 14.3894 15.341 14.1094 15.041Z" fill="currentColor"/>
</svg>
